<svg xmlns="http://www.w3.org/2000/svg" viewBox="0 0 32 32" width="32" height="32">
  <!-- Background circle -->
  <circle cx="16" cy="16" r="15" fill="#dc2626" stroke="#b91c1c" stroke-width="1"/>
  
  <!-- Letter "I" - simplified -->
  <rect x="13" y="9" width="2" height="14" fill="white" rx="1"/>
  
  <!-- Letter "A" - simplified -->
  <path d="M17 9 L20 23 L19 23 L18.5 21 L15.5 21 L15 23 L14 23 L17 9 Z" fill="white"/>
  <rect x="16.5" y="15" width="1" height="2" fill="#dc2626"/>
  
  <!-- Letter "D" - simplified -->
  <path d="M21 9 L21 23 L22 23 Q23 23 23 22 L23 10 Q23 9 22 9 Z" fill="white"/>
  <rect x="22" y="11" width="0.5" height="10" fill="#dc2626"/>
  
  <!-- Letter "E" - simplified -->
  <path d="M25 9 L25 23 L28 23 L28 21 L26 21 L26 19 L28 19 L28 17 L26 17 L26 15 L28 15 L28 13 L25 13 Z" fill="white"/>
</svg> 